<?xml version="1.0" encoding="utf-8"?>
<!-- Generator: Adobe Illustrator 19.0.1, SVG Export Plug-In . SVG Version: 6.00 Build 0)  -->
<svg version="1.2" baseProfile="tiny" id="Layer_1" xmlns="http://www.w3.org/2000/svg" xmlns:xlink="http://www.w3.org/1999/xlink"
	 x="0px" y="0px" viewBox="0 0 256 256" xml:space="preserve">
<rect x="-14.2" y="-14.2" fill="#2A375B" width="284.3" height="284.3"/>
<g>
	<path fill="#FFFFFF" d="M48.8,187.1l-4.5-18.6c-1.6-6.3-3.1-12.8-4.4-19.1h-0.1c-1.4,6.3-2.9,12.8-4.4,19.1l-4.5,18.6H23L13,144.5
		h5.5l4,17.2c1.6,6.7,3,13.4,4.4,20.1h0.1c1.5-6.6,3.1-13.4,4.7-20.1l4.2-17.2h7.7l4.2,17.2c1.7,6.7,3.2,13.5,4.7,20.1h0.1
		c1.4-6.6,2.9-13.3,4.4-20.1l4-17.2h5.5l-9.9,42.6H48.8z"/>
	<path fill="#FFFFFF" d="M87,144.5c9.8,0,14.9,5.1,14.9,12.9s-5.1,12.9-14.9,12.9h-9.1v16.9h-5.5v-42.6H87z M77.9,165.5h8.7
		c6.5,0,9.6-3.1,9.6-8.1s-3.2-8.1-9.6-8.1h-8.7V165.5z"/>
	<path fill="#FFFFFF" d="M30.3,196.8c9.6,0,14.1,4.2,14.1,11c0,5.9-3.5,9.9-8.8,10.8v0.1c3.2,0.8,4.7,2.6,6.6,8l4.6,12.7h-2.5
		l-4.4-12.3c-2-5.6-4-7.5-9.2-7.5H20.9v19.8h-2.2v-42.6H30.3z M20.9,217.5h10.1c7.8,0,11.3-4.3,11.3-9.8c0-5.7-4-8.9-11.9-8.9h-9.5
		V217.5z"/>
	<path fill="#FFFFFF" d="M74.3,230.4h2.3c-0.9,5.5-5.3,9.6-12.2,9.6c-8.3,0-13.3-6.4-13.3-16.5c0-9.1,5-15.3,13-15.3
		c6.7,0,11.3,4.2,12.5,11c0.3,1.5,0.4,3.2,0.4,5.1H53.2c0.1,8.7,4.6,13.8,11.2,13.8C69.8,238.1,73.5,235,74.3,230.4z M53.2,222.5
		h21.6c-0.2-7.8-4.6-12.2-10.8-12.2C57.5,210.2,53.5,215.1,53.2,222.5z"/>
	<path fill="#FFFFFF" d="M114.8,239.4l-5.3-20l-5.4-20.5H104l-5.4,20.5l-5.3,20h-3.5l-11.3-42.6h2.2l5.3,19.5l5.6,21h0.1
		c1.9-7,3.7-14.1,5.5-21.1l5.1-19.4h3.5l5.1,19.4c1.8,7,3.7,14.1,5.5,21.1h0.1l5.6-21l5.3-19.5h2.3l-11.4,42.6H114.8z"/>
	<path fill="#FFFFFF" d="M158,224.2c0,9.9-5,15.9-13.3,15.9c-8.3,0-13.3-6-13.3-15.9s5-15.9,13.3-15.9
		C152.9,208.3,158,214.3,158,224.2z M133.5,224.2c0,8.7,4.1,13.9,11.1,13.9c7,0,11.1-5.2,11.1-13.9s-4.1-13.9-11.1-13.9
		C137.7,210.3,133.5,215.5,133.5,224.2z"/>
	<path fill="#FFFFFF" d="M179.8,209v2.1c-0.5-0.1-1.2-0.1-1.7-0.1c-6,0-9.9,3.9-9.9,11.6v16.9h-2.2V209h2.2v5.9h0.1
		c1.8-3.9,5.2-6.1,9.8-6.1C178.6,208.8,179.3,208.9,179.8,209z"/>
	<path fill="#FFFFFF" d="M204.7,239.4v-6.5h-0.1c-1.6,4.4-5.3,7.1-10.1,7.1c-7.8,0-12.8-6-12.8-15.8c0-9.8,4.9-15.9,12.8-15.9
		c4.8,0,8.5,2.7,10.1,7.1h0.1v-18.7h2.2v42.6H204.7z M184,224.2c0,8.6,4.1,13.9,10.7,13.9c6.2,0,10.1-5.3,10.1-13.9
		c0-8.6-3.9-13.9-10.1-13.9C188.1,210.2,184,215.6,184,224.2z"/>
	<path fill="#FFFFFF" d="M236.2,218.7H234c0-5.3-3.2-8.4-8.6-8.4c-4.5,0-7.8,2.3-7.8,6.1c0,4.1,2.6,4.9,8.3,6.2
		c6.8,1.5,11.3,2.9,11.3,9c0,5-4.4,8.5-10.7,8.5c-7.4,0-11.7-4.1-11.7-11h2.2c0,5.7,3.5,9,9.6,9c4.9,0,8.5-2.6,8.5-6.4
		c0-4.5-2.9-5.5-9.8-7.1c-5.6-1.3-9.8-2.5-9.8-8.1c0-5,4.2-8.2,10-8.2C232.1,208.3,236.1,212.2,236.2,218.7z"/>
</g>
<g>
	<path fill="#FFFFFF" d="M48.8,187.1l-4.5-18.6c-1.6-6.3-3.1-12.8-4.4-19.1h-0.1c-1.4,6.3-2.9,12.8-4.4,19.1l-4.5,18.6H23L13,144.5
		h5.5l4,17.2c1.6,6.7,3,13.4,4.4,20.1h0.1c1.5-6.6,3.1-13.4,4.7-20.1l4.2-17.2h7.7l4.2,17.2c1.7,6.7,3.2,13.5,4.7,20.1h0.1
		c1.4-6.6,2.9-13.3,4.4-20.1l4-17.2h5.5l-9.9,42.6H48.8z"/>
	<path fill="#FFFFFF" d="M87,144.5c9.8,0,14.9,5.1,14.9,12.9s-5.1,12.9-14.9,12.9h-9.1v16.9h-5.5v-42.6H87z M77.9,165.5h8.7
		c6.5,0,9.6-3.1,9.6-8.1s-3.2-8.1-9.6-8.1h-8.7V165.5z"/>
	<path fill="#FFFFFF" d="M30.3,196.8c9.6,0,14.1,4.2,14.1,11c0,5.9-3.5,9.9-8.8,10.8v0.1c3.2,0.8,4.7,2.6,6.6,8l4.6,12.7h-2.5
		l-4.4-12.3c-2-5.6-4-7.5-9.2-7.5H20.9v19.8h-2.2v-42.6H30.3z M20.9,217.5h10.1c7.8,0,11.3-4.3,11.3-9.8c0-5.7-4-8.9-11.9-8.9h-9.5
		V217.5z"/>
	<path fill="#FFFFFF" d="M74.3,230.4h2.3c-0.9,5.5-5.3,9.6-12.2,9.6c-8.3,0-13.3-6.4-13.3-16.5c0-9.1,5-15.3,13-15.3
		c6.7,0,11.3,4.2,12.5,11c0.3,1.5,0.4,3.2,0.4,5.1H53.2c0.1,8.7,4.6,13.8,11.2,13.8C69.8,238.1,73.5,235,74.3,230.4z M53.2,222.5
		h21.6c-0.2-7.8-4.6-12.2-10.8-12.2C57.5,210.2,53.5,215.1,53.2,222.5z"/>
	<path fill="#FFFFFF" d="M114.8,239.4l-5.3-20l-5.4-20.5H104l-5.4,20.5l-5.3,20h-3.5l-11.3-42.6h2.2l5.3,19.5l5.6,21h0.1
		c1.9-7,3.7-14.1,5.5-21.1l5.1-19.4h3.5l5.1,19.4c1.8,7,3.7,14.1,5.5,21.1h0.1l5.6-21l5.3-19.5h2.3l-11.4,42.6H114.8z"/>
	<path fill="#FFFFFF" d="M158,224.2c0,9.9-5,15.9-13.3,15.9c-8.3,0-13.3-6-13.3-15.9s5-15.9,13.3-15.9
		C152.9,208.3,158,214.3,158,224.2z M133.5,224.2c0,8.7,4.1,13.9,11.1,13.9c7,0,11.1-5.2,11.1-13.9s-4.1-13.9-11.1-13.9
		C137.7,210.3,133.5,215.5,133.5,224.2z"/>
	<path fill="#FFFFFF" d="M179.8,209v2.1c-0.5-0.1-1.2-0.1-1.7-0.1c-6,0-9.9,3.9-9.9,11.6v16.9h-2.2V209h2.2v5.9h0.1
		c1.8-3.9,5.2-6.1,9.8-6.1C178.6,208.8,179.3,208.9,179.8,209z"/>
	<path fill="#FFFFFF" d="M204.7,239.4v-6.5h-0.1c-1.6,4.4-5.3,7.1-10.1,7.1c-7.8,0-12.8-6-12.8-15.8c0-9.8,4.9-15.9,12.8-15.9
		c4.8,0,8.5,2.7,10.1,7.1h0.1v-18.7h2.2v42.6H204.7z M184,224.2c0,8.6,4.1,13.9,10.7,13.9c6.2,0,10.1-5.3,10.1-13.9
		c0-8.6-3.9-13.9-10.1-13.9C188.1,210.2,184,215.6,184,224.2z"/>
	<path fill="#FFFFFF" d="M236.2,218.7H234c0-5.3-3.2-8.4-8.6-8.4c-4.5,0-7.8,2.3-7.8,6.1c0,4.1,2.6,4.9,8.3,6.2
		c6.8,1.5,11.3,2.9,11.3,9c0,5-4.4,8.5-10.7,8.5c-7.4,0-11.7-4.1-11.7-11h2.2c0,5.7,3.5,9,9.6,9c4.9,0,8.5-2.6,8.5-6.4
		c0-4.5-2.9-5.5-9.8-7.1c-5.6-1.3-9.8-2.5-9.8-8.1c0-5,4.2-8.2,10-8.2C232.1,208.3,236.1,212.2,236.2,218.7z"/>
</g>
<g>
	<path fill="#FFFFFF" d="M48.8,187.1l-4.5-18.6c-1.6-6.3-3.1-12.8-4.4-19.1h-0.1c-1.4,6.3-2.9,12.8-4.4,19.1l-4.5,18.6H23L13,144.5
		h5.5l4,17.2c1.6,6.7,3,13.4,4.4,20.1h0.1c1.5-6.6,3.1-13.4,4.7-20.1l4.2-17.2h7.7l4.2,17.2c1.7,6.7,3.2,13.5,4.7,20.1h0.1
		c1.4-6.6,2.9-13.3,4.4-20.1l4-17.2h5.5l-9.9,42.6H48.8z"/>
	<path fill="#FFFFFF" d="M87,144.5c9.8,0,14.9,5.1,14.9,12.9s-5.1,12.9-14.9,12.9h-9.1v16.9h-5.5v-42.6H87z M77.9,165.5h8.7
		c6.5,0,9.6-3.1,9.6-8.1s-3.2-8.1-9.6-8.1h-8.7V165.5z"/>
	<path fill="#FFFFFF" d="M30.3,196.8c9.6,0,14.1,4.2,14.1,11c0,5.9-3.5,9.9-8.8,10.8v0.1c3.2,0.8,4.7,2.6,6.6,8l4.6,12.7h-2.5
		l-4.4-12.3c-2-5.6-4-7.5-9.2-7.5H20.9v19.8h-2.2v-42.6H30.3z M20.9,217.5h10.1c7.8,0,11.3-4.3,11.3-9.8c0-5.7-4-8.9-11.9-8.9h-9.5
		V217.5z"/>
	<path fill="#FFFFFF" d="M74.3,230.4h2.3c-0.9,5.5-5.3,9.6-12.2,9.6c-8.3,0-13.3-6.4-13.3-16.5c0-9.1,5-15.3,13-15.3
		c6.7,0,11.3,4.2,12.5,11c0.3,1.5,0.4,3.2,0.4,5.1H53.2c0.1,8.7,4.6,13.8,11.2,13.8C69.8,238.1,73.5,235,74.3,230.4z M53.2,222.5
		h21.6c-0.2-7.8-4.6-12.2-10.8-12.2C57.5,210.2,53.5,215.1,53.2,222.5z"/>
	<path fill="#FFFFFF" d="M114.8,239.4l-5.3-20l-5.4-20.5H104l-5.4,20.5l-5.3,20h-3.5l-11.3-42.6h2.2l5.3,19.5l5.6,21h0.1
		c1.9-7,3.7-14.1,5.5-21.1l5.1-19.4h3.5l5.1,19.4c1.8,7,3.7,14.1,5.5,21.1h0.1l5.6-21l5.3-19.5h2.3l-11.4,42.6H114.8z"/>
	<path fill="#FFFFFF" d="M158,224.2c0,9.9-5,15.9-13.3,15.9c-8.3,0-13.3-6-13.3-15.9s5-15.9,13.3-15.9
		C152.9,208.3,158,214.3,158,224.2z M133.5,224.2c0,8.7,4.1,13.9,11.1,13.9c7,0,11.1-5.2,11.1-13.9s-4.1-13.9-11.1-13.9
		C137.7,210.3,133.5,215.5,133.5,224.2z"/>
	<path fill="#FFFFFF" d="M179.8,209v2.1c-0.5-0.1-1.2-0.1-1.7-0.1c-6,0-9.9,3.9-9.9,11.6v16.9h-2.2V209h2.2v5.9h0.1
		c1.8-3.9,5.2-6.1,9.8-6.1C178.6,208.8,179.3,208.9,179.8,209z"/>
	<path fill="#FFFFFF" d="M204.7,239.4v-6.5h-0.1c-1.6,4.4-5.3,7.1-10.1,7.1c-7.8,0-12.8-6-12.8-15.8c0-9.8,4.9-15.9,12.8-15.9
		c4.8,0,8.5,2.7,10.1,7.1h0.1v-18.7h2.2v42.6H204.7z M184,224.2c0,8.6,4.1,13.9,10.7,13.9c6.2,0,10.1-5.3,10.1-13.9
		c0-8.6-3.9-13.9-10.1-13.9C188.1,210.2,184,215.6,184,224.2z"/>
	<path fill="#FFFFFF" d="M236.2,218.7H234c0-5.3-3.2-8.4-8.6-8.4c-4.5,0-7.8,2.3-7.8,6.1c0,4.1,2.6,4.9,8.3,6.2
		c6.8,1.5,11.3,2.9,11.3,9c0,5-4.4,8.5-10.7,8.5c-7.4,0-11.7-4.1-11.7-11h2.2c0,5.7,3.5,9,9.6,9c4.9,0,8.5-2.6,8.5-6.4
		c0-4.5-2.9-5.5-9.8-7.1c-5.6-1.3-9.8-2.5-9.8-8.1c0-5,4.2-8.2,10-8.2C232.1,208.3,236.1,212.2,236.2,218.7z"/>
</g>
<g>
	<path fill="#FFFFFF" d="M48.8,187.1l-4.5-18.6c-1.6-6.3-3.1-12.8-4.4-19.1h-0.1c-1.4,6.3-2.9,12.8-4.4,19.1l-4.5,18.6H23L13,144.5
		h5.5l4,17.2c1.6,6.7,3,13.4,4.4,20.1h0.1c1.5-6.6,3.1-13.4,4.7-20.1l4.2-17.2h7.7l4.2,17.2c1.7,6.7,3.2,13.5,4.7,20.1h0.1
		c1.4-6.6,2.9-13.3,4.4-20.1l4-17.2h5.5l-9.9,42.6H48.8z"/>
	<path fill="#FFFFFF" d="M87,144.5c9.8,0,14.9,5.1,14.9,12.9s-5.1,12.9-14.9,12.9h-9.1v16.9h-5.5v-42.6H87z M77.9,165.5h8.7
		c6.5,0,9.6-3.1,9.6-8.1s-3.2-8.1-9.6-8.1h-8.7V165.5z"/>
	<path fill="#FFFFFF" d="M30.3,196.8c9.6,0,14.1,4.2,14.1,11c0,5.9-3.5,9.9-8.8,10.8v0.1c3.2,0.8,4.7,2.6,6.6,8l4.6,12.7h-2.5
		l-4.4-12.3c-2-5.6-4-7.5-9.2-7.5H20.9v19.8h-2.2v-42.6H30.3z M20.9,217.5h10.1c7.8,0,11.3-4.3,11.3-9.8c0-5.7-4-8.9-11.9-8.9h-9.5
		V217.5z"/>
	<path fill="#FFFFFF" d="M74.3,230.4h2.3c-0.9,5.5-5.3,9.6-12.2,9.6c-8.3,0-13.3-6.4-13.3-16.5c0-9.1,5-15.3,13-15.3
		c6.7,0,11.3,4.2,12.5,11c0.3,1.5,0.4,3.2,0.4,5.1H53.2c0.1,8.7,4.6,13.8,11.2,13.8C69.8,238.1,73.5,235,74.3,230.4z M53.2,222.5
		h21.6c-0.2-7.8-4.6-12.2-10.8-12.2C57.5,210.2,53.5,215.1,53.2,222.5z"/>
	<path fill="#FFFFFF" d="M114.8,239.4l-5.3-20l-5.4-20.5H104l-5.4,20.5l-5.3,20h-3.5l-11.3-42.6h2.2l5.3,19.5l5.6,21h0.1
		c1.9-7,3.7-14.1,5.5-21.1l5.1-19.4h3.5l5.1,19.4c1.8,7,3.7,14.1,5.5,21.1h0.1l5.6-21l5.3-19.5h2.3l-11.4,42.6H114.8z"/>
	<path fill="#FFFFFF" d="M158,224.2c0,9.9-5,15.9-13.3,15.9c-8.3,0-13.3-6-13.3-15.9s5-15.9,13.3-15.9
		C152.9,208.3,158,214.3,158,224.2z M133.5,224.2c0,8.7,4.1,13.9,11.1,13.9c7,0,11.1-5.2,11.1-13.9s-4.1-13.9-11.1-13.9
		C137.7,210.3,133.5,215.5,133.5,224.2z"/>
	<path fill="#FFFFFF" d="M179.8,209v2.1c-0.5-0.1-1.2-0.1-1.7-0.1c-6,0-9.9,3.9-9.9,11.6v16.9h-2.2V209h2.2v5.9h0.1
		c1.8-3.9,5.2-6.1,9.8-6.1C178.6,208.8,179.3,208.9,179.8,209z"/>
	<path fill="#FFFFFF" d="M204.7,239.4v-6.5h-0.1c-1.6,4.4-5.3,7.1-10.1,7.1c-7.8,0-12.8-6-12.8-15.8c0-9.8,4.9-15.9,12.8-15.9
		c4.8,0,8.5,2.7,10.1,7.1h0.1v-18.7h2.2v42.6H204.7z M184,224.2c0,8.6,4.1,13.9,10.7,13.9c6.2,0,10.1-5.3,10.1-13.9
		c0-8.6-3.9-13.9-10.1-13.9C188.1,210.2,184,215.6,184,224.2z"/>
	<path fill="#FFFFFF" d="M236.2,218.7H234c0-5.3-3.2-8.4-8.6-8.4c-4.5,0-7.8,2.3-7.8,6.1c0,4.1,2.6,4.9,8.3,6.2
		c6.8,1.5,11.3,2.9,11.3,9c0,5-4.4,8.5-10.7,8.5c-7.4,0-11.7-4.1-11.7-11h2.2c0,5.7,3.5,9,9.6,9c4.9,0,8.5-2.6,8.5-6.4
		c0-4.5-2.9-5.5-9.8-7.1c-5.6-1.3-9.8-2.5-9.8-8.1c0-5,4.2-8.2,10-8.2C232.1,208.3,236.1,212.2,236.2,218.7z"/>
</g>
</svg>
